<svg width="118.101" height="70.8" viewBox="0 0 118.101 70.8" xmlns="http://www.w3.org/2000/svg">
    <g id="svgGroup" stroke-linecap="round" fill-rule="evenodd" font-size="9pt" stroke="#000" stroke-width="0.25mm"
       fill="#0fd9c1" style="stroke:#000;stroke-width:0.25mm;fill:#0fd9c1">
        <path d="M 9.5 70.8 L 0 70.8 L 0 0.8 L 9.5 0.8 L 9.5 30.7 L 44 30.7 L 44 0.8 L 53.5 0.8 L 53.5 70.8 L 44 70.8 L 44 38.9 L 9.5 38.9 L 9.5 70.8 Z M 81 70.8 L 71.5 70.8 L 71.5 1 Q 75.6 0.5 80.55 0.25 A 200.806 200.806 0 0 1 89.48 0.004 A 221.966 221.966 0 0 1 90.8 0 Q 98.37 0 103.972 2.082 A 26.011 26.011 0 0 1 105.6 2.75 A 24.606 24.606 0 0 1 110.682 5.779 A 19.374 19.374 0 0 1 114.9 10.3 Q 118.1 15.1 118.1 21.3 A 25.258 25.258 0 0 1 117.392 27.423 A 19.268 19.268 0 0 1 114.4 34 A 22.312 22.312 0 0 1 106.849 40.63 A 28.065 28.065 0 0 1 104.1 41.95 A 34.774 34.774 0 0 1 96.011 44.174 A 47.194 47.194 0 0 1 88.8 44.7 Q 84.6 44.7 81 44.4 L 81 70.8 Z M 81 8.4 L 81 36.3 Q 82.1 36.438 83.531 36.552 A 96.255 96.255 0 0 0 84.9 36.65 Q 87.2 36.8 90 36.8 A 31.831 31.831 0 0 0 95.38 36.375 Q 98.259 35.88 100.563 34.811 A 15.221 15.221 0 0 0 103.8 32.8 A 12.896 12.896 0 0 0 108.655 23.358 A 17.32 17.32 0 0 0 108.7 22.1 A 14.452 14.452 0 0 0 107.939 17.307 A 12.136 12.136 0 0 0 104 11.8 A 15.462 15.462 0 0 0 98.919 9.137 Q 96.693 8.427 94 8.16 A 34.58 34.58 0 0 0 90.6 8 A 131.125 131.125 0 0 0 87.342 8.039 A 109.939 109.939 0 0 0 85.5 8.1 A 91.274 91.274 0 0 0 82.617 8.264 A 75.041 75.041 0 0 0 81 8.4 Z"
              vector-effect="non-scaling-stroke"/>
    </g>
</svg>